<?xml version="1.0" encoding="UTF-8"?>
<!DOCTYPE svg PUBLIC "-//W3C//DTD SVG 1.1//EN" "http://www.w3.org/Graphics/SVG/1.1/DTD/svg11.dtd">
<svg xmlns="http://www.w3.org/2000/svg" version="1.1" width="200px" height="67px" style="shape-rendering:geometricPrecision; text-rendering:geometricPrecision; image-rendering:optimizeQuality; fill-rule:evenodd; clip-rule:evenodd" xmlns:xlink="http://www.w3.org/1999/xlink">
<g><path style="opacity:0.908" fill="#00739e" d="M 10.5,-0.5 C 14.1667,-0.5 17.8333,-0.5 21.5,-0.5C 24.0205,1.01922 26.5205,2.68589 29,4.5C 31.4795,2.68589 33.9795,1.01922 36.5,-0.5C 39.8333,-0.5 43.1667,-0.5 46.5,-0.5C 51.7544,1.58567 55.5877,5.25234 58,10.5C 58.4999,21.8284 58.6665,33.1618 58.5,44.5C 54.5,44.5 50.5,44.5 46.5,44.5C 46.6665,33.8281 46.4998,23.1615 46,12.5C 41.7622,8.24052 37.9288,8.57385 34.5,13.5C 35.476,23.781 35.8093,34.1143 35.5,44.5C 32.1667,44.5 28.8333,44.5 25.5,44.5C 25.6664,35.4938 25.4998,26.4938 25,17.5C 23.134,11.3122 18.9674,8.81224 12.5,10C 11.2986,10.9025 10.4652,12.0692 10,13.5C 9.50017,23.828 9.33351,34.1613 9.5,44.5C 6.16667,44.5 2.83333,44.5 -0.5,44.5C -0.5,33.5 -0.5,22.5 -0.5,11.5C 1.77744,6.22272 5.44411,2.22272 10.5,-0.5 Z"/></g>
<g><path style="opacity:0.902" fill="#00729e" d="M 76.5,-0.5 C 80.8333,-0.5 85.1667,-0.5 89.5,-0.5C 101.407,4.44486 106.741,13.4449 105.5,26.5C 94.1618,26.3335 82.8284,26.5001 71.5,27C 74.6709,33.1713 79.6709,35.5047 86.5,34C 88.9592,33.0299 91.2925,31.8632 93.5,30.5C 96.1617,31.4969 98.8284,32.4969 101.5,33.5C 102.521,34.0016 102.688,34.6683 102,35.5C 91.2937,46.2159 79.7937,47.2159 67.5,38.5C 58.7682,28.2662 58.2682,17.5995 66,6.5C 69.3075,3.77106 72.8075,1.43772 76.5,-0.5 Z M 79.5,9.5 C 85.833,8.66427 90.833,10.8309 94.5,16C 86.8318,16.7626 79.1652,17.0959 71.5,17C 73.408,13.5888 76.0747,11.0888 79.5,9.5 Z"/></g>
<g><path style="opacity:0.916" fill="#d2992e" d="M 123.5,-0.5 C 127.833,-0.5 132.167,-0.5 136.5,-0.5C 144.238,2.23892 149.238,7.57226 151.5,15.5C 151.5,19.8333 151.5,24.1667 151.5,28.5C 149.35,36.8153 144.016,41.982 135.5,44C 121.781,46.0582 112.614,40.5582 108,27.5C 106.173,14.1448 111.339,4.81148 123.5,-0.5 Z M 125.5,10.5 C 137.651,9.15793 142.817,14.4913 141,26.5C 137.677,32.9081 132.511,35.0748 125.5,33C 119.456,29.5514 117.29,24.3848 119,17.5C 120.694,14.6424 122.861,12.309 125.5,10.5 Z"/></g>
<g><path style="opacity:0.918" fill="#00729e" d="M 170.5,-0.5 C 174.833,-0.5 179.167,-0.5 183.5,-0.5C 190.749,2.41477 196.083,7.41477 199.5,14.5C 199.5,24.5 199.5,34.5 199.5,44.5C 196.167,44.5 192.833,44.5 189.5,44.5C 189.719,43.325 189.386,42.325 188.5,41.5C 174.31,47.7146 163.477,44.048 156,30.5C 152.243,16.0195 157.076,5.68615 170.5,-0.5 Z M 173.5,9.5 C 186.533,9.56463 191.367,15.898 188,28.5C 180.263,36.6537 172.93,36.3203 166,27.5C 163.344,19.2913 165.844,13.2913 173.5,9.5 Z"/></g>
<g><path style="opacity:0.91" fill="#da9a2a" d="M 151.5,15.5 C 154.167,19.8333 154.167,24.1667 151.5,28.5C 151.5,24.1667 151.5,19.8333 151.5,15.5 Z"/></g>
<g><path style="opacity:0.881" fill="#d1992e" d="M 136.5,66.5 C 132.167,66.5 127.833,66.5 123.5,66.5C 113.51,62.2203 108.177,54.5537 107.5,43.5C 111.167,43.5 114.833,43.5 118.5,43.5C 118.969,50.9728 122.969,55.3062 130.5,56.5C 138.134,55.5325 141.8,51.1991 141.5,43.5C 145.555,43.1758 149.555,43.5091 153.5,44.5C 152.271,55.3817 146.604,62.715 136.5,66.5 Z"/></g>
<g><path style="opacity:0.435" fill="#00739e" d="M 29.5,50.5 C 31.9115,50.1367 33.4115,51.1367 34,53.5C 38.0976,50.0078 40.0976,51.0078 40,56.5C 40.2022,54.7444 40.7022,53.0777 41.5,51.5C 45.7701,51.3949 50.1034,51.8949 54.5,53C 55.7472,54.4936 55.7472,55.9936 54.5,57.5C 53.7492,56.624 53.2492,55.624 53,54.5C 52,58.5 51,58.5 50,54.5C 49.5172,55.448 49.3505,56.448 49.5,57.5C 48.1667,57.5 46.8333,57.5 45.5,57.5C 45.719,58.675 45.3857,59.675 44.5,60.5C 42.651,58.0935 40.4844,56.7601 38,56.5C 37.6121,57.428 36.9454,58.0946 36,58.5C 33.8824,57.8041 31.7158,57.6374 29.5,58C 26.9142,55.506 26.9142,53.006 29.5,50.5 Z"/></g>
<g><path style="opacity:0.446" fill="#00739e" d="M 59.5,50.5 C 60.7899,51.0577 61.6232,52.0577 62,53.5C 62.3879,52.572 63.0546,51.9054 64,51.5C 67.985,53.3581 71.8184,53.3581 75.5,51.5C 76.1924,52.0253 76.6924,52.6919 77,53.5C 82.8765,52.397 88.7098,51.7303 94.5,51.5C 95.8333,53.5 95.8333,55.5 94.5,57.5C 91.9037,58.2129 89.2371,58.2129 86.5,57.5C 86.4042,53.6893 85.7376,53.6893 84.5,57.5C 83.2624,53.6893 82.5958,53.6893 82.5,57.5C 75.8566,57.8571 69.19,58.1904 62.5,58.5C 60.8333,55.8333 59.1667,55.8333 57.5,58.5C 56.883,55.6668 57.5497,53.0002 59.5,50.5 Z"/></g>
<g><path style="opacity:0.583" fill="#00739e" d="M -0.5,51.5 C 1.01739,51.5106 2.18405,52.1772 3,53.5C 4.33333,50.8333 5.66667,50.8333 7,53.5C 13.009,52.8781 19.1757,52.5448 25.5,52.5C 25.5,54.1667 25.5,55.8333 25.5,57.5C 24.1667,57.5 22.8333,57.5 21.5,57.5C 21.1667,53.5 20.8333,53.5 20.5,57.5C 18.7376,57.3573 17.0709,57.6906 15.5,58.5C 14.2011,57.91 13.3678,56.91 13,55.5C 9.95092,58.9574 6.45092,59.2907 2.5,56.5C 1.58317,57.1272 0.583168,57.4606 -0.5,57.5C -0.5,55.5 -0.5,53.5 -0.5,51.5 Z"/></g>
</svg>
